<svg xmlns="http://www.w3.org/2000/svg" viewBox="0 0 1920 1080" class="undefined"><style>.a{fill:#26B48E;}</style><path d="M1569.2 1034.1h-1081c-220.8 0-400.4-179.6-400.4-400.4s179.6-400.4 400.4-400.4c35.9 0 72 5.1 107.2 15C658 101.7 802.6 5 963.6 5c115.5 0 223.5 49.1 299.7 135.4 35.4-15 73.7-22.7 111.9-22.7 158.7 0 287.8 129.1 287.8 287.8 0 22.2-2.7 44.4-7.9 66.4 118.8 36.8 202 147.7 202 274.6C1857 905 1727.9 1034.1 1569.2 1034.1zM488.3 291.6c-188.6 0-342.1 153.4-342.1 342.1s153.4 342.1 342.1 342.1h1080.8c126.5 0 229.4-102.9 229.4-229.4 0-109.8-78.2-204.3-185.8-225.1 -8.3-1.6-15.5-6.9-19.9-14.3 -4.2-7.4-5.1-16.2-2.2-24.4 9-25.3 13.7-51.3 13.7-77.3 0-126.5-102.9-229.4-229.4-231.2 -37.4 0-73.1 8.8-106.3 26.2 -12.5 6.5-27.6 3.2-36.5-7.8 -65.5-83.2-163.6-131.1-268.8-131.1 -145.7 0-275.5 92.6-323.1 230.7 -2.5 7.4-7.9 13.4-15 16.8 -7 3.4-15.2 3.8-22.4 1.3C565.5 298.3 526.9 291.6 488.3 291.6z" class="a"/></svg>